<svg xmlns="http://www.w3.org/2000/svg" viewBox="0 0 129 32" width="129" height="32">
  <path d="M 6.77 9.39 L 6.77 9.39 L 7.12 8.89 L 7.60 8.48 L 8.21 8.14 L 8.94 7.89 L 9.79 7.73 L 10.73 7.66 L 11.77 7.68 L 12.89 7.80 L 14.08 8.00 L 15.33 8.29 L 16.61 8.67 L 17.93 9.12 L 19.26 9.65 L 20.59 10.25 L 21.90 10.91 L 23.19 11.63 L 24.43 12.40 L 25.61 13.21 L 26.73 14.04 L 27.76 14.90 L 28.69 15.77 L 29.53 16.64 L 30.25 17.51 L 30.85 18.36 L 31.32 19.18 L 31.66 19.97 L 31.86 20.72 L 31.92 21.41 L 31.85 22.04 L 31.63 22.61" fill="none" stroke="#6366F1" stroke-width="1.76" stroke-linecap="round"/>
  <circle cx="19.20" cy="16.00" r="3.52" fill="#6366F1"/>
  <path d="M 31.63 22.61 L 31.28 23.11 L 30.80 23.52 L 30.19 23.86 L 29.46 24.11 L 28.61 24.27 L 27.67 24.34 L 26.63 24.32 L 25.51 24.20 L 24.32 24.00 L 23.07 23.71 L 21.79 23.33 L 20.47 22.88 L 19.14 22.35 L 17.81 21.75 L 16.50 21.09 L 15.21 20.37 L 13.97 19.60 L 12.79 18.79 L 11.67 17.96 L 10.64 17.10 L 9.71 16.23 L 8.87 15.36 L 8.15 14.49 L 7.55 13.64 L 7.08 12.82 L 6.74 12.03 L 6.54 11.28 L 6.48 10.59 L 6.55 9.96 L 6.77 9.39" fill="none" stroke="#6366F1" stroke-width="1.76" stroke-linecap="round"/>
  <circle cx="7.94" cy="14.21" r="2.08" fill="#F97316"/>
  <g>
    <path d="M257 -10Q190 -10 137.5 23.0Q85 56 54.5 113.0Q24 170 24 243Q24 316 54.5 373.0Q85 430 137.5 463.0Q190 496 257 496Q306 496 345.5 477.0Q385 458 410.0 424.5Q435 391 438 348V138Q435 95 410.5 61.5Q386 28 346.0 9.0Q306 -10 257 -10ZM288 128Q337 128 367.0 160.5Q397 193 397 243Q397 277 383.5 303.0Q370 329 345.5 343.5Q321 358 289 358Q257 358 232.5 343.5Q208 329 193.5 303.0Q179 277 179 243Q179 210 193.0 184.0Q207 158 232.0 143.0Q257 128 288 128ZM391 0V131L414 249L391 367V486H541V0Z" fill="#0F0F0F" transform="translate(39.04,19.84) scale(0.016640,-0.016640)"/>
    <path d="M260 -218Q180 -218 119.5 -190.5Q59 -163 24 -113L118 -19Q144 -50 176.5 -66.0Q209 -82 255 -82Q312 -82 344.5 -54.0Q377 -26 377 25V149L403 255L380 361V486H530V29Q530 -46 495.0 -101.0Q460 -156 399.0 -187.0Q338 -218 260 -218ZM253 15Q186 15 134.0 47.0Q82 79 52.0 134.0Q22 189 22 256Q22 324 52.0 378.5Q82 433 134.0 464.5Q186 496 253 496Q303 496 342.5 477.5Q382 459 406.5 425.5Q431 392 434 348V163Q431 120 406.5 86.5Q382 53 342.0 34.0Q302 15 253 15ZM282 151Q314 151 337.5 165.0Q361 179 373.5 202.5Q386 226 386 256Q386 286 373.5 310.0Q361 334 337.5 348.0Q314 362 282 362Q251 362 227.0 348.0Q203 334 190.0 310.0Q177 286 177 256Q177 228 190.0 203.5Q203 179 226.5 165.0Q250 151 282 151Z" fill="#0F0F0F" transform="translate(48.94,19.84) scale(0.016640,-0.016640)"/>
    <path d="M294 -11Q215 -11 153.5 21.5Q92 54 57.0 112.0Q22 170 22 243Q22 316 56.5 373.5Q91 431 150.0 464.0Q209 497 283 497Q355 497 410.0 466.0Q465 435 496.5 380.0Q528 325 528 254Q528 241 526.5 226.5Q525 212 521 193L102 192V297L456 298L390 254Q389 296 377.0 323.5Q365 351 341.5 365.5Q318 380 284 380Q248 380 221.5 363.5Q195 347 180.5 317.0Q166 287 166 244Q166 201 181.5 170.5Q197 140 225.5 123.5Q254 107 293 107Q329 107 358.0 119.5Q387 132 409 157L493 73Q457 31 406.0 10.0Q355 -11 294 -11Z" fill="#0F0F0F" transform="translate(58.66,19.84) scale(0.016640,-0.016640)"/>
    <path d="M375 0V277Q375 315 351.5 338.5Q328 362 292 362Q267 362 248.0 351.5Q229 341 218.0 321.5Q207 302 207 277L148 306Q148 363 173.0 406.0Q198 449 242.5 472.5Q287 496 343 496Q397 496 438.5 470.5Q480 445 504.0 403.0Q528 361 528 311V0ZM54 0V486H207V0Z" fill="#0F0F0F" transform="translate(67.78,19.84) scale(0.016640,-0.016640)"/>
    <path d="M123 0V687H276V0ZM13 356V486H386V356Z" fill="#0F0F0F" transform="translate(77.30,19.84) scale(0.016640,-0.016640)"/>
    <path d="M54 0V486H207V0ZM131 553Q95 553 71.5 577.5Q48 602 48 637Q48 673 71.5 697.0Q95 721 131 721Q167 721 190.0 697.0Q213 673 213 637Q213 602 190.0 577.5Q167 553 131 553Z" fill="#0F0F0F" transform="translate(83.93,19.84) scale(0.016640,-0.016640)"/>
    <path d="M289 -11Q214 -11 153.0 22.0Q92 55 57.0 113.0Q22 171 22 243Q22 316 57.5 373.5Q93 431 154.0 464.0Q215 497 291 497Q348 497 395.5 477.5Q443 458 480 419L382 321Q365 340 342.5 349.0Q320 358 291 358Q258 358 232.5 343.5Q207 329 192.5 303.5Q178 278 178 244Q178 210 192.5 184.0Q207 158 233.0 143.0Q259 128 291 128Q321 128 344.5 138.5Q368 149 385 168L482 70Q444 30 396.0 9.5Q348 -11 289 -11Z" fill="#0F0F0F" transform="translate(88.28,19.84) scale(0.016640,-0.016640)"/>
    <path d="M261 -10Q192 -10 138.5 23.0Q85 56 54.5 113.0Q24 170 24 243Q24 316 54.5 373.0Q85 430 138.5 463.0Q192 496 261 496Q311 496 351.5 477.0Q392 458 418.5 424.5Q445 391 448 348V143Q445 100 419.0 65.5Q393 31 352.0 10.5Q311 -10 261 -10ZM288 128Q321 128 345.0 142.5Q369 157 383.0 183.0Q397 209 397 243Q397 277 383.5 302.5Q370 328 345.5 343.0Q321 358 289 358Q257 358 232.5 343.0Q208 328 193.5 302.0Q179 276 179 243Q179 210 193.0 184.0Q207 158 232.0 143.0Q257 128 288 128ZM541 0H391V131L414 249L388 367V726H541Z" fill="#6366F1" transform="translate(97.86,19.84) scale(0.016640,-0.016640)"/>
    <path d="M294 -11Q215 -11 153.5 21.5Q92 54 57.0 112.0Q22 170 22 243Q22 316 56.5 373.5Q91 431 150.0 464.0Q209 497 283 497Q355 497 410.0 466.0Q465 435 496.5 380.0Q528 325 528 254Q528 241 526.5 226.5Q525 212 521 193L102 192V297L456 298L390 254Q389 296 377.0 323.5Q365 351 341.5 365.5Q318 380 284 380Q248 380 221.5 363.5Q195 347 180.5 317.0Q166 287 166 244Q166 201 181.5 170.5Q197 140 225.5 123.5Q254 107 293 107Q329 107 358.0 119.5Q387 132 409 157L493 73Q457 31 406.0 10.0Q355 -11 294 -11Z" fill="#6366F1" transform="translate(107.76,19.84) scale(0.016640,-0.016640)"/>
    <path d="M207 0 1 486H166L306 81H234L374 486H536L330 0Z" fill="#6366F1" transform="translate(116.88,19.84) scale(0.016640,-0.016640)"/>
  </g>
</svg>