<svg xmlns="http://www.w3.org/2000/svg" viewBox="0 0 128 128" width="128" height="128">
  <path d="M 14.27 37.56 L 14.27 37.56 L 15.68 35.58 L 17.61 33.91 L 20.05 32.57 L 22.97 31.57 L 26.34 30.93 L 30.13 30.65 L 34.28 30.74 L 38.76 31.19 L 43.52 32.00 L 48.50 33.16 L 53.66 34.66 L 58.92 36.48 L 64.24 38.60 L 69.56 41.00 L 74.82 43.66 L 79.96 46.53 L 84.92 49.60 L 89.65 52.82 L 94.11 56.17 L 98.23 59.60 L 101.98 63.08 L 105.31 66.57 L 108.19 70.04 L 110.59 73.43 L 112.47 76.73 L 113.83 79.88 L 114.64 82.86 L 114.89 85.63 L 114.59 88.17 L 113.73 90.44" fill="none" stroke="#6366F1" stroke-width="7.04" stroke-linecap="round"/>
  <circle cx="64.00" cy="64.00" r="14.08" fill="#6366F1"/>
  <path d="M 113.73 90.44 L 112.32 92.42 L 110.39 94.09 L 107.95 95.43 L 105.03 96.43 L 101.66 97.07 L 97.87 97.35 L 93.72 97.26 L 89.24 96.81 L 84.48 96.00 L 79.50 94.84 L 74.34 93.34 L 69.08 91.52 L 63.76 89.40 L 58.44 87.00 L 53.18 84.34 L 48.04 81.47 L 43.08 78.40 L 38.35 75.18 L 33.89 71.83 L 29.77 68.40 L 26.02 64.92 L 22.69 61.43 L 19.81 57.96 L 17.41 54.57 L 15.53 51.27 L 14.17 48.12 L 13.36 45.14 L 13.11 42.37 L 13.41 39.83 L 14.27 37.56" fill="none" stroke="#6366F1" stroke-width="7.04" stroke-linecap="round"/>
  <circle cx="18.95" cy="56.82" r="8.32" fill="#F97316"/>
</svg>