<svg xmlns="http://www.w3.org/2000/svg" viewBox="0 0 192 192" width="192" height="192">
  <rect width="192" height="192" rx="42" fill="#6366F1"/>
  <path d="M 51.25 72.20 L 51.25 72.20 L 52.51 70.42 L 54.25 68.92 L 56.44 67.71 L 59.07 66.81 L 62.11 66.24 L 65.51 65.99 L 69.25 66.06 L 73.29 66.47 L 77.57 67.20 L 82.05 68.25 L 86.69 69.60 L 91.43 71.23 L 96.22 73.14 L 101.00 75.30 L 105.73 77.69 L 110.36 80.28 L 114.83 83.04 L 119.09 85.94 L 123.10 88.95 L 126.81 92.04 L 130.18 95.18 L 133.18 98.32 L 135.77 101.43 L 137.93 104.49 L 139.63 107.45 L 140.85 110.29 L 141.57 112.97 L 141.80 115.47 L 141.53 117.75 L 140.75 119.80" fill="none" stroke="#FFFFFF" stroke-width="6.34" stroke-linecap="round"/>
  <circle cx="96.00" cy="96.00" r="12.67" fill="#FFFFFF"/>
  <path d="M 140.75 119.80 L 139.49 121.58 L 137.75 123.08 L 135.56 124.29 L 132.93 125.19 L 129.89 125.76 L 126.49 126.01 L 122.75 125.94 L 118.71 125.53 L 114.43 124.80 L 109.95 123.75 L 105.31 122.40 L 100.57 120.77 L 95.78 118.86 L 91.00 116.70 L 86.27 114.31 L 81.64 111.72 L 77.17 108.96 L 72.91 106.06 L 68.90 103.05 L 65.19 99.96 L 61.82 96.82 L 58.82 93.68 L 56.23 90.57 L 54.07 87.51 L 52.37 84.55 L 51.15 81.71 L 50.43 79.03 L 50.20 76.53 L 50.47 74.25 L 51.25 72.20" fill="none" stroke="#FFFFFF" stroke-width="6.34" stroke-linecap="round"/>
  <circle cx="55.46" cy="89.54" r="7.49" fill="#F97316"/>
</svg>