<svg xmlns="http://www.w3.org/2000/svg" viewBox="0 0 512 512" width="512" height="512">
  <rect width="512" height="512" rx="0" fill="#6366F1"/>
  <path d="M 136.65 192.54 L 136.65 192.54 L 140.02 187.79 L 144.66 183.78 L 150.52 180.56 L 157.53 178.17 L 165.62 176.63 L 174.71 175.96 L 184.68 176.17 L 195.43 177.26 L 206.85 179.20 L 218.81 181.99 L 231.17 185.59 L 243.81 189.96 L 256.58 195.05 L 269.34 200.81 L 281.96 207.18 L 294.29 214.08 L 306.21 221.44 L 317.57 229.18 L 328.26 237.21 L 338.16 245.45 L 347.15 253.80 L 355.15 262.18 L 362.06 270.49 L 367.81 278.64 L 372.34 286.54 L 375.59 294.11 L 377.53 301.26 L 378.14 307.92 L 377.41 314.01 L 375.35 319.46" fill="none" stroke="#FFFFFF" stroke-width="16.90" stroke-linecap="round"/>
  <circle cx="256.00" cy="256.00" r="33.79" fill="#FFFFFF"/>
  <path d="M 375.35 319.46 L 371.98 324.21 L 367.34 328.22 L 361.48 331.44 L 354.47 333.83 L 346.38 335.37 L 337.29 336.04 L 327.32 335.83 L 316.57 334.74 L 305.15 332.80 L 293.19 330.01 L 280.83 326.41 L 268.19 322.04 L 255.42 316.95 L 242.66 311.19 L 230.04 304.82 L 217.71 297.92 L 205.79 290.56 L 194.43 282.82 L 183.74 274.79 L 173.84 266.55 L 164.85 258.20 L 156.85 249.82 L 149.94 241.51 L 144.19 233.36 L 139.66 225.46 L 136.41 217.89 L 134.47 210.74 L 133.86 204.08 L 134.59 197.99 L 136.65 192.54" fill="none" stroke="#FFFFFF" stroke-width="16.90" stroke-linecap="round"/>
  <circle cx="147.89" cy="238.77" r="19.97" fill="#F97316"/>
</svg>